<?xml version="1.0" encoding="UTF-8" standalone="no"?>
<svg
   xmlns:dc="http://purl.org/dc/elements/1.1/"
   xmlns:cc="http://creativecommons.org/ns#"
   xmlns:rdf="http://www.w3.org/1999/02/22-rdf-syntax-ns#"
   xmlns:svg="http://www.w3.org/2000/svg"
   xmlns="http://www.w3.org/2000/svg"
   id="svg8"
   version="1.1"
   viewBox="0 0 210 148"
   height="148mm"
   width="210mm">
  <defs
     id="defs2" />
  <metadata
     id="metadata5">
    <rdf:RDF>
      <cc:Work
         rdf:about="">
        <dc:format>image/svg+xml</dc:format>
        <dc:type
           rdf:resource="http://purl.org/dc/dcmitype/StillImage" />
        <dc:title></dc:title>
      </cc:Work>
    </rdf:RDF>
  </metadata>
  <g
     transform="translate(0,-149)"
     id="layer1">
    <flowRoot
       style="font-style:normal;font-weight:normal;font-size:40px;line-height:1.25;font-family:sans-serif;letter-spacing:0px;word-spacing:0px;fill:#000000;fill-opacity:1;stroke:none"
       id="flowRoot3707"
       xml:space="preserve"><flowRegion
         id="flowRegion3709"><rect
           y="462.51968"
           x="277.14285"
           height="120"
           width="94.285713"
           id="rect3711" /></flowRegion><flowPara
         id="flowPara3713" /></flowRoot>    <flowRoot
       style="font-style:normal;font-weight:normal;font-size:40px;line-height:1.25;font-family:sans-serif;letter-spacing:0px;word-spacing:0px;fill:#000000;fill-opacity:1;stroke:none"
       id="flowRoot3715"
       xml:space="preserve"><flowRegion
         id="flowRegion3717"><rect
           y="459.66254"
           x="225.71428"
           height="54.285713"
           width="160"
           id="rect3719" /></flowRegion><flowPara
         id="flowPara3721" /></flowRoot>    <g
       style="fill:#000080"
       id="g3907">
      <path
         transform="translate(11.112501,5.8208336)"
         points="175.74118,200.2867 135.53484,217.48693 38.722562,180.80882 38.300324,173.2646 "
         d="M 38.300324,173.2646 175.74118,200.2867 135.53484,217.48693 38.722562,180.80882 Z"
         style="fill:#bec8b7;fill-rule:evenodd;stroke:none;stroke-linejoin:round"
         id="path3911" />
      <path
         transform="translate(0,-8.9958338)"
         points="117.2709,250.51127 94.773603,252.49985 26.608408,191.21459 24.987875,184.69968 "
         d="M 24.987875,184.69968 117.2709,250.51127 94.773603,252.49985 26.608408,191.21459 Z"
         style="fill:#afafde;fill-rule:evenodd;stroke:none;stroke-linejoin:round"
         id="path3917" />
    </g>
    <g
       id="flowRoot3699"
       style="font-style:italic;font-variant:normal;font-weight:normal;font-stretch:normal;font-size:192px;line-height:1.25;font-family:sans-serif;-inkscape-font-specification:'sans-serif Italic';letter-spacing:0px;word-spacing:0px;fill:#000000;fill-opacity:1;stroke:none"
       transform="matrix(0.32572181,0,0,0.30408579,5.8826634,96.751719)"
       aria-label="BsBt">
      <path
         id="path3723"
         d="m 172.77148,437.86664 c -6.0625,4.0625 -12.40625,6.96875 -19.03125,8.71875 -6.625,1.6875 -14.78125,2.53125 -24.46875,2.53125 H 77.990234 c 11.608538,-43.10993 19.281302,-87.91078 8.050995,-140.83297 l 64.230251,1.23922 c 10.18561,0.19652 17.75,0.34375 22.6875,1.03125 5,0.6875 9.5625,2.28125 13.6875,4.78125 3.4375,2.125 6,4.84375 7.6875,8.15625 1.75,3.25 2.625,6.875 2.625,10.875 0,8.0625 -2.28125,15.1875 -6.84375,21.375 -4.5625,6.1875 -10.875,10.96875 -18.9375,14.34375 v 0.75 c 7.5,1.6875 13.21875,4.84375 17.15625,9.46875 4,4.625 6,10.5625 6,17.8125 0,7.9375 -2,15.46875 -6,22.59375 -3.9375,7.0625 -9.125,12.78125 -15.5625,17.15625 z m 4.03125,-98.34375 c 0,-2.625 -0.4375,-4.78125 -1.3125,-6.46875 -0.875,-1.75 -2.125,-3.1875 -3.75,-4.3125 -2.625,-1.75 -5.90625,-2.84375 -9.84375,-3.28125 -3.9375,-0.5 -9.03125,-0.75 -15.28125,-0.75 l -43.4385,2.47844 c 6.78214,11.39831 11.93745,24.01977 21.93844,32.99798 4.07488,3.27928 8.44514,6.16376 15.12506,5.96108 5.37254,-0.16302 10.0625,-0.375 14.0625,-1.125 4,-0.8125 7.5,-2.0625 10.5,-3.75 3.875,-2.25 6.84375,-5.4375 8.90625,-9.5625 2.0625,-4.1875 3.09375,-8.25 3.09375,-12.1875 z m -2.0625,59.90625 c 0,-3.5 -0.59375,-6.3125 -1.78125,-8.4375 -1.1875,-2.1875 -3.3125,-4.21875 -6.375,-6.09375 -2.5,-1.5625 -5.71875,-2.59375 -9.65625,-3.09375 -3.875,-0.5 -12.64503,-1.60324 -18.20088,2.56171 l -9.71888,7.28577 -36.21599,39.79908 13.23208,0.61961 c 8.30345,0.38881 34.84117,1.42133 40.02867,0.54633 5.25,-0.9375 9.78125,-2.5625 13.59375,-4.875 4.9375,-2.9375 8.6875,-6.9375 11.25,-12 2.5625,-5.125 3.84375,-10.5625 3.84375,-16.3125 z" />
      <path
         id="path3725"
         d="m 241.02148,451.64789 c -7.8125,0 -14.8125,-0.96875 -21,-2.90625 -6.125,-1.9375 -11.25,-4.03125 -15.375,-6.28125 l 3.9375,-18.84375 6.64327,-23.65243 c 1.3125,1.125 -3.1684,24.72986 -0.95169,30.31173 1.81658,2.73673 10.06723,5.11837 10.06723,5.11837 l 10.18546,2.66786 10.33698,-0.66428 c 9.17921,-0.58988 15.71875,-1.625 20.71875,-4.875 5,-3.25 7.5,-8.03125 7.5,-14.34375 0,-3.3125 -1.28125,-5.84375 -3.84375,-7.59375 -2.5625,-1.8125 -6.25,-3.28125 -11.0625,-4.40625 -2.4375,-0.5625 -5.375,-1.1875 -8.8125,-1.875 -3.375,-0.6875 -6.8125,-1.5 -10.3125,-2.4375 -7.3125,-2.0625 -12.71875,-5.03125 -16.21875,-8.90625 -3.5,-3.9375 -5.25,-8.71875 -5.25,-14.34375 0,-4.875 1.0625,-9.4375 3.1875,-13.6875 2.125,-4.25 5.28125,-8.15625 9.46875,-11.71875 4,-3.375 9.09375,-6.09375 15.28125,-8.15625 6.1875,-2.125 13.0625,-3.1875 20.625,-3.1875 6.25,0 12.46875,0.78125 18.65625,2.34375 6.25,1.5625 11.34375,3.5 15.28125,5.8125 l -3.75,18 -6.64327,24.73456 c -1,-0.8125 2.55768,-29.42345 -0.12166,-31.41681 -2,-1.375 -3.79145,-2.0083 -6.91645,-2.67284 -2.6875,-1.1875 -5.0727,-1.29121 -8.6977,-2.16621 -3.5625,-0.875 -7.58967,-0.38495 -11.46467,-0.38495 -7.8125,0 -14.15625,1.65625 -19.03125,4.96875 -4.875,3.25 -7.3125,7.71875 -7.3125,13.40625 0,3.125 1.1875,5.75 3.5625,7.875 2.375,2.0625 6,3.6875 10.875,4.875 3.0625,0.75 6.25,1.46875 9.5625,2.15625 3.375,0.625 6.625,1.3125 9.75,2.0625 7.25,1.8125 12.6875,4.625 16.3125,8.4375 3.6875,3.8125 5.53125,8.59375 5.53125,14.34375 0,4.8125 -1.15625,9.53125 -3.46875,14.15625 -2.25,4.5625 -5.53125,8.53125 -9.84375,11.90625 -4.4375,3.5625 -9.8125,6.34375 -16.125,8.34375 -6.3125,2 -13.40625,3 -21.28125,3 z" />
      <path
         id="path3729"
         transform="matrix(0.76642337,0,0,0.76831742,11.647354,-7.3158577)"
         d="m 582.37513,428.41784 4.61927,33.06717 -18.18767,-9.01857 -5.48446,23.85192 21.89925,-3.18302 -23.368,76.39591 c -0.65239,3.25386 -1.18211,6.18207 -1.58985,8.78516 -0.32619,2.52174 -0.49023,5.08441 -0.49023,7.6875 0,10.6564 3.05775,18.46559 9.17383,23.42773 6.19761,4.8808 14.92416,7.32031 26.17773,7.32031 3.99583,0 8.56172,-0.36553 13.69922,-1.09765 5.21905,-0.73212 9.05201,-2.99405 13.61868,-4.1329 2.40919,-5.86282 7.34963,-7.4589 7.19902,-18.44132 l -1.93656,-45.10193 c -1.63095,0.65077 -4.85356,42.40264 -10.56278,47.78552 -5.62768,2.99561 -8.52178,3.3005 -11.86524,3.3005 -8.15476,0 -13.74055,-3.0139 -16.75781,-5.86105 -3.01726,-2.92847 -4.52539,-7.36248 -4.52539,-13.30078 0,-2.44039 0.32614,-5.69438 0.97852,-9.76172 0.65238,-4.14867 1.38569,-7.8099 2.20117,-10.98242 l 8.84415,-70.00164 43.4802,5.03978 11.05671,-22.79091 -49.84821,7.69231 13.41786,-24.5791 z"
         style="stroke-width:1.30315268" />
      <path
         id="path3723-7"
         d="m 399.12897,438.40889 c -6.0625,4.0625 -12.40624,6.96874 -19.03125,8.71875 -6.625,1.6875 -14.78125,2.53124 -24.46875,2.53124 h -51.28124 c 11.60854,-43.10993 19.2813,-87.91078 8.05099,-140.83297 l 64.23025,1.23922 c 10.18561,0.19652 17.75,0.34375 22.6875,1.03125 5,0.6875 9.5625,2.28125 13.6875,4.78125 3.4375,2.125 6,4.84375 7.6875,8.15625 1.75,3.25 2.625,6.875 2.625,10.875 0,8.0625 -2.28125,15.1875 -6.84375,21.375 -4.5625,6.1875 -10.875,10.96875 -18.9375,14.34375 v 0.75 c 7.5,1.6875 13.21876,4.84375 17.15626,9.46875 3.99999,4.625 5.99999,10.5625 5.99999,17.8125 0,7.93751 -2,15.46875 -5.99999,22.59375 -3.9375,7.0625 -9.12501,12.78126 -15.56251,17.15626 z m 4.03125,-98.34376 c 0,-2.625 -0.4375,-4.78125 -1.3125,-6.46875 -0.875,-1.75 -2.125,-3.1875 -3.75,-4.3125 -2.625,-1.75 -5.90625,-2.84375 -9.84375,-3.28125 -3.9375,-0.5 -9.03125,-0.75 -15.28125,-0.75 l -43.4385,2.47844 c 6.78214,11.39831 11.93745,24.01977 21.93844,32.99798 4.07488,3.27928 8.44514,6.16376 15.12506,5.96108 5.37254,-0.16302 10.0625,-0.375 14.0625,-1.125 4,-0.8125 7.5,-2.0625 10.50001,-3.75 3.87499,-2.25 6.84374,-5.4375 8.90624,-9.5625 2.0625,-4.1875 3.09375,-8.25 3.09375,-12.1875 z m -2.0625,59.90625 c 0,-3.5 -0.59375,-6.3125 -1.78125,-8.4375 -1.1875,-2.1875 -3.3125,-4.21875 -6.375,-6.09375 -2.5,-1.5625 -5.71874,-2.59375 -9.65624,-3.09375 -3.87501,-0.5 -12.64504,-1.60324 -18.20089,2.56171 l -9.71888,7.28577 -36.21599,39.79908 13.23208,0.61961 c 8.30345,0.38882 34.84117,1.42134 40.02867,0.54634 5.25,-0.9375 9.78125,-2.5625 13.59376,-4.87501 4.93749,-2.9375 8.68749,-6.9375 11.24999,-11.99999 2.5625,-5.125 3.84375,-10.56251 3.84375,-16.31251 z"
         style="font-style:italic;font-variant:normal;font-weight:normal;font-stretch:normal;font-size:192px;line-height:1.25;font-family:sans-serif;-inkscape-font-specification:'sans-serif Italic';letter-spacing:0px;word-spacing:0px;fill:#000000;fill-opacity:1;stroke:none;stroke-width:1" />
      <path
         transform="matrix(0.76642337,0,0,0.76831742,11.647354,-7.3158577)"
         id="path3853"
         d="m 87.403773,593.07118 c 0,-0.43347 1.510127,-6.82551 3.355837,-14.20454 9.64705,-38.56827 13.56336,-67.75495 13.54108,-100.91641 -0.0152,-22.56603 -1.99101,-43.54418 -5.806985,-61.65408 l -1.098795,-5.21468 27.76958,0.52603 c 86.00623,1.62918 88.56453,1.80448 99.05763,6.78764 7.13355,3.38771 11.11099,7.10438 14.09971,13.17535 2.13262,4.33195 2.48564,5.91214 2.74097,12.26897 0.20551,5.11666 -0.0766,8.73949 -0.94423,12.12622 -3.5408,13.82112 -13.60061,25.76992 -27.54986,32.72308 -2.61761,1.30478 -4.64879,2.70386 -4.51372,3.10907 0.13507,0.4052 2.10631,1.31912 4.38052,2.03094 6.57596,2.05823 11.99624,5.16819 16.01945,9.1914 11.68938,11.68938 12.668,32.45447 2.46088,52.21732 -5.89696,11.41761 -13.56893,19.43186 -25.42102,26.55518 -11.16822,6.71229 -21.21552,9.74065 -37.40923,11.27553 -11.20126,1.06168 -80.681817,1.06425 -80.681817,0.003 z M 178.5421,572.20005 c 8.10437,-1.79064 16.94551,-6.30157 21.8922,-11.16986 8.30147,-8.16988 12.33051,-18.24052 12.32532,-30.80724 -0.004,-9.37606 -1.16301,-12.30828 -6.84153,-17.30672 -4.29657,-3.78199 -9.47636,-5.80196 -17.80057,-6.9417 -18.81458,-2.57608 -24.3113,1.05587 -58.83107,38.87256 -21.23699,23.2653 -23.47658,25.96094 -21.9697,26.44344 2.0295,0.64985 32.74936,1.83063 51.90717,1.99516 10.25375,0.0881 15.28594,-0.19474 19.31818,-1.08564 z m 9.99804,-87.80262 c 11.9551,-3.16295 18.59883,-8.13625 23.09819,-17.29063 6.86043,-13.95819 4.93127,-26.42756 -4.82444,-31.1834 -8.78965,-4.28489 -19.21282,-4.77158 -56.92397,-2.65794 -16.65905,0.93371 -30.40885,1.80193 -30.55511,1.92937 -0.46715,0.40704 14.26743,26.17518 17.92154,31.34157 6.61911,9.35846 14.16459,15.78891 21.99908,18.74815 3.67934,1.38977 22.8768,0.80822 29.28471,-0.88712 z"
         style="fill:#000080;stroke-width:0.75757575" />
      <path
         transform="matrix(0.76642337,0,0,0.76831742,11.647354,-7.3158577)"
         id="path3855"
         d="m 385.58809,581.9275 c 6.49495,-25.6083 10.60824,-48.7922 12.86728,-72.52431 0.95449,-10.02736 1.14083,-18.11127 0.8385,-36.37721 -0.39808,-24.0504 -1.43435,-35.25872 -4.96529,-53.70424 l -1.43418,-7.49212 29.64105,0.53384 c 57.38396,1.03349 80.88031,1.86831 86.4375,3.07109 16.88379,3.65427 26.58325,13.59077 27.49247,28.16434 0.51104,8.19137 -0.72919,14.29967 -4.51359,22.23012 -4.15885,8.71515 -13.20927,17.84099 -22.43187,22.61884 -3.4611,1.79304 -6.1741,3.61654 -6.02888,4.05219 0.14522,0.43566 2.12476,1.37449 4.39897,2.08631 18.45356,5.77582 27.44341,20.15804 25.02628,40.03773 -3.01139,24.76713 -20.21637,45.29337 -45.50076,54.28428 -13.62878,4.84628 -23.90712,5.69075 -69.38488,5.70072 l -35.66096,0.008 z m 93.10356,-10.32035 c 7.80651,-2.69117 11.86634,-5.08732 17.16821,-10.1329 4.70416,-4.47677 8.79115,-11.49039 10.92677,-18.7513 1.85241,-6.29801 1.88707,-17.05034 0.0702,-21.75918 -1.75245,-4.54169 -7.52941,-9.83597 -12.9428,-11.86139 -8.39064,-3.13933 -21.18818,-3.7603 -28.10989,-1.36393 -1.47279,0.50989 -5.75811,3.13545 -9.52294,5.83458 -5.66952,4.06467 -11.00926,9.4613 -31.09142,31.42265 l -24.24629,26.51515 2.51048,0.55285 c 3.8792,0.85427 37.13769,1.95248 54.02563,1.78396 14.36378,-0.14333 15.46662,-0.25981 21.21212,-2.24049 z m -2.06908,-85.3465 c 17.92825,-2.24801 28.3959,-9.91923 32.74388,-23.99633 1.62613,-5.26483 2.0294,-13.94196 0.79841,-17.17972 -1.39472,-3.66838 -6.04937,-7.91747 -10.50936,-9.59368 -8.36165,-3.14258 -19.73064,-3.46371 -53.99191,-1.52502 -16.83457,0.95258 -30.73343,1.84684 -30.88637,1.98723 -0.44077,0.4046 11.76033,22.05421 16.19678,28.73952 7.54355,11.36745 15.19494,18.24618 23.65242,21.26395 3.44661,1.2298 13.50436,1.36883 21.99615,0.30405 z"
         style="fill:#000080;stroke-width:0.75757575" />
    </g>
  </g>
</svg>
